<svg xmlns="http://www.w3.org/2000/svg" viewBox="22.04 -325.96 1542.22 592.02" width="1542" height="592" role="img" aria-label="Signature Pianos"><title>Signature Pianos</title><g fill="#F3F0E9"><path d="M128.18 19.72Q107.88 19.72 85.55 13.63Q63.22 7.54 46.11 -6.38Q29 -20.3 23.2 -43.5Q22.62 -46.4 22.33 -49.88Q22.04 -53.36 22.04 -56.84Q22.04 -74.82 30.16 -91.64Q38.28 -108.46 49.88 -117.16H50.46Q51.62 -117.16 53.65 -114.55Q55.68 -111.94 53.36 -110.78Q47.56 -104.98 44.95 -97.73Q42.34 -90.48 42.34 -82.36Q42.34 -71.34 46.11 -60.03Q49.88 -48.72 55.68 -40.6Q70.18 -20.3 95.99 -8.41Q121.8 3.48 146.74 3.48Q180.96 3.48 199.81 -16.82Q218.66 -37.12 218.66 -66.7Q218.66 -84.68 211.7 -102.66Q202.42 -127.6 187.05 -151.67Q171.68 -175.74 158.92 -198.94Q147.9 -219.82 147.9 -241.28Q147.9 -263.9 161.82 -284.78Q175.74 -303.34 198.65 -314.65Q221.56 -325.96 245.34 -325.96Q261.58 -325.96 276.66 -320.16Q291.74 -314.36 303.92 -301.02Q307.4 -295.8 307.4 -287.68Q307.4 -276.08 302.76 -269.7Q297.54 -262.16 291.16 -249.98Q284.78 -237.8 283.62 -233.16Q282.46 -232.58 278.11 -231.13Q273.76 -229.68 272.6 -231.42Q274.92 -236.06 278.98 -248.24Q283.04 -260.42 283.04 -270.28Q283.04 -276.66 282.75 -284.49Q282.46 -292.32 274.92 -298.12Q267.96 -304.5 256.94 -309.14Q245.92 -313.78 230.26 -313.78Q198.36 -313.78 181.54 -295.22Q164.72 -276.66 164.72 -254.62Q164.72 -243.6 169.36 -232.58Q178.06 -211.7 193.72 -193.14Q209.38 -174.58 224.75 -155.15Q240.12 -135.72 248.82 -113.1Q254.62 -98.02 254.62 -82.36Q254.62 -59.74 243.31 -41.18Q232 -22.62 213.15 -8.99Q194.3 4.64 172.26 12.18Q150.22 19.72 128.18 19.72ZM401.94 -221.56Q393.82 -221.56 390.34 -226.78Q388.02 -229.68 388.02 -234.32Q388.02 -243.6 396.72 -249.4Q403.1 -252.88 408.32 -252.88Q417.02 -252.88 420.5 -247.66Q422.82 -244.76 422.82 -240.12Q422.82 -230.84 413.54 -225.04Q408.32 -221.56 401.94 -221.56ZM301.02 1.74Q295.22 1.74 291.45 -0.58Q287.68 -2.9 287.68 -9.28Q287.68 -17.4 292.03 -28.42Q296.38 -39.44 301.89 -50.46Q307.4 -61.48 310.3 -68.44Q314.36 -76.56 320.45 -89.61Q326.54 -102.66 332.05 -114.55Q337.56 -126.44 339.88 -131.08Q331.76 -122.38 320.45 -109.33Q309.14 -96.28 299.28 -84.1Q289.42 -71.92 284.2 -64.96Q282.46 -62.64 281.3 -62.64Q280.14 -62.64 280.14 -65.54Q280.14 -70.18 283.04 -74.24Q294.06 -88.16 307.69 -105.56Q321.32 -122.96 332.34 -137.75Q343.36 -152.54 346.26 -157.18Q352.64 -158.34 365.11 -160.66Q377.58 -162.98 382.22 -167.04Q383.96 -168.78 385.7 -168.78Q386.86 -168.78 387.15 -166.75Q387.44 -164.72 385.7 -162.4Q382.22 -158.34 373.52 -142.68Q364.82 -127.02 355.25 -108.17Q345.68 -89.32 337.56 -74.24Q329.44 -58.58 323.64 -44.08Q317.84 -29.58 317.84 -23.2Q317.84 -15.08 325.96 -15.08Q333.5 -15.08 345.39 -24.36Q357.28 -33.64 369.46 -46.69Q381.64 -59.74 390.92 -70.76Q393.82 -74.24 398.17 -79.17Q402.52 -84.1 403.68 -85.26Q404.84 -84.1 404.84 -81.2Q404.26 -77.14 401.94 -73.37Q399.62 -69.6 397.3 -66.7Q385.12 -51.62 370.62 -35.67Q356.12 -19.72 338.72 -8.99Q321.32 1.74 301.02 1.74ZM288.84 203Q266.8 203 246.21 192.85Q225.62 182.7 215.76 161.82Q211.7 154.28 210.54 145.87Q209.38 137.46 209.38 129.34V123.54Q209.38 118.9 210.54 114.84Q211.7 110.78 216.92 110.78Q218.08 110.78 218.08 111.94Q218.08 115.42 217.5 118.9Q216.92 122.38 216.92 126.44Q216.92 153.12 234.03 167.04Q251.14 180.96 276.66 180.96Q287.1 180.96 298.12 178.64Q309.14 176.32 318.42 172.26Q355.54 156.6 383.09 127.02Q410.64 97.44 431.23 60.32Q451.82 23.2 467.77 -15.95Q483.72 -55.1 497.64 -89.9Q485.46 -70.18 470.96 -54.81Q456.46 -39.44 438.48 -24.36Q427.46 -15.08 414.41 -6.96Q401.36 1.16 386.28 1.16Q380.48 1.16 378.16 -2.61Q375.84 -6.38 375.84 -11.6V-15.66Q378.74 -38.28 390.63 -62.64Q402.52 -87 419.34 -108.46Q436.16 -129.92 453.56 -143.26Q473.28 -158.34 497.06 -158.34H563.76Q566.66 -158.34 566.66 -156.02Q566.66 -151.38 561.44 -151.38Q555.06 -151.38 549.26 -146.16Q543.46 -140.94 540.56 -136.3Q534.76 -127.02 525.48 -107.88Q516.2 -88.74 505.18 -64.09Q494.16 -39.44 483.14 -14.21Q472.12 11.02 462.84 33.06Q448.92 66.12 431.23 97.73Q413.54 129.34 389.47 154.57Q365.4 179.8 332.34 194.3Q312.62 203 288.84 203ZM410.06 -18.56Q417.02 -18.56 429.2 -28.71Q441.38 -38.86 455.88 -54.23Q470.38 -69.6 483.14 -86.71Q495.9 -103.82 504.31 -118.03Q512.72 -132.24 512.72 -139.78Q512.72 -146.16 508.95 -148.48Q505.18 -150.8 499.38 -150.8Q490.1 -150.8 479.66 -144.13Q469.22 -137.46 462.84 -131.08Q455.88 -124.7 446.31 -111.07Q436.74 -97.44 427.17 -81.2Q417.6 -64.96 411.22 -49.88Q404.84 -34.8 404.84 -25.52Q404.84 -18.56 410.06 -18.56ZM549.84 8.7Q547.52 8.7 549.84 3.48Q552.74 -1.74 555.35 -8.12Q557.96 -14.5 560.86 -22.04Q566.66 -35.96 573.62 -53.36Q580.58 -70.76 586.96 -87.29Q593.34 -103.82 598.27 -115.71Q603.2 -127.6 604.94 -131.08Q596.82 -122.38 585.51 -109.33Q574.2 -96.28 564.34 -84.1Q554.48 -71.92 549.26 -64.96Q547.52 -62.64 546.36 -62.64Q545.2 -62.64 545.2 -65.54Q545.2 -70.18 548.1 -74.24Q559.12 -88.16 572.75 -105.56Q586.38 -122.96 597.4 -137.75Q608.42 -152.54 611.32 -157.18Q617.7 -158.34 630.17 -160.66Q642.64 -162.98 647.28 -167.04Q649.02 -168.78 650.76 -168.78Q651.92 -168.78 652.21 -166.75Q652.5 -164.72 650.76 -162.4Q647.28 -158.34 638.87 -143.55Q630.46 -128.76 620.89 -110.78Q611.32 -92.8 603.2 -78.3Q610.16 -87.58 618.28 -96.28Q626.4 -104.98 633.94 -113.1Q640.9 -120.06 653.08 -130.5Q665.26 -140.94 678.6 -149.64Q691.94 -158.34 701.8 -159.5Q704.12 -160.08 706.15 -160.08Q708.18 -160.08 709.34 -160.08Q722.1 -160.08 722.1 -150.8Q722.1 -143.84 714.56 -132.24Q710.5 -125.86 702.09 -111.07Q693.68 -96.28 685.27 -79.17Q676.86 -62.06 670.77 -47.27Q664.68 -32.48 664.68 -25.52Q664.68 -17.4 672.8 -17.4Q682.66 -17.4 694.55 -27.26Q706.44 -37.12 720.36 -52.49Q734.28 -67.86 748.2 -85.26Q749.36 -84.1 749.36 -81.2Q749.36 -77.14 746.75 -73.37Q744.14 -69.6 741.82 -66.7Q736.02 -59.16 726.45 -47.85Q716.88 -36.54 707.02 -25.81Q697.16 -15.08 689.04 -8.7Q683.24 -4.64 673.96 0Q664.68 4.64 655.4 4.64Q644.96 4.64 640.9 -0.87Q636.84 -6.38 636.84 -14.5Q636.84 -23.78 640.32 -34.22Q643.8 -44.66 648.15 -54.23Q652.5 -63.8 654.82 -68.44Q665.26 -88.74 673.96 -106.72Q682.66 -124.7 686.14 -132.24Q687.88 -135.72 687.88 -138.04Q687.88 -142.1 681.5 -138.62Q675.12 -135.14 666.13 -128.18Q657.14 -121.22 649.6 -114.55Q642.06 -107.88 639.74 -105.56Q618.28 -82.94 602.33 -55.39Q586.38 -27.84 575.36 1.16Q567.82 1.74 560.28 5.22Q552.74 8.7 549.84 8.7ZM816.64 1.74Q810.84 1.74 806.78 -0.58Q802.72 -2.9 802.72 -9.28Q802.72 -17.4 806.78 -27.84Q810.84 -38.28 816.06 -48.43Q821.28 -58.58 825.34 -64.96Q805.04 -43.5 783 -24.36Q771.98 -15.08 758.64 -6.96Q745.3 1.16 730.22 1.16Q724.42 1.16 722.1 -2.61Q719.78 -6.38 719.78 -11.6Q719.78 -14.5 720.36 -15.66Q723.26 -38.28 734.86 -62.64Q746.46 -87 763.28 -108.46Q780.1 -129.92 797.5 -143.26Q817.22 -158.34 841 -158.34H907.7Q910.6 -158.34 910.6 -156.02Q910.6 -151.38 905.38 -151.38Q899.58 -151.38 893.78 -144.13Q887.98 -136.88 885.08 -132.24Q881.02 -125.86 872.32 -110.78Q863.62 -95.7 854.63 -78.01Q845.64 -60.32 839.26 -45.24Q832.88 -30.16 832.88 -23.2Q832.88 -15.08 841 -15.08Q849.7 -15.08 860.72 -23.2Q871.74 -31.32 883.05 -43.21Q894.36 -55.1 903.93 -66.99Q913.5 -78.88 919.3 -85.84Q922.78 -82.36 919.01 -76.27Q915.24 -70.18 912.34 -66.7Q900.74 -51.62 885.66 -35.67Q870.58 -19.72 852.89 -8.99Q835.2 1.74 816.64 1.74ZM754 -18.56Q760.96 -18.56 773.43 -28.71Q785.9 -38.86 800.4 -54.23Q814.9 -69.6 827.66 -86.71Q840.42 -103.82 848.83 -118.03Q857.24 -132.24 857.24 -139.78Q857.24 -146.16 853.47 -148.48Q849.7 -150.8 843.9 -150.8Q834.62 -150.8 823.89 -144.13Q813.16 -137.46 806.78 -131.08Q799.82 -124.7 790.25 -111.07Q780.68 -97.44 771.4 -81.2Q762.12 -64.96 755.74 -49.88Q749.36 -34.8 749.36 -25.52Q749.36 -18.56 754 -18.56ZM931.48 1.74Q925.68 1.74 921.62 -0.58Q917.56 -2.9 917.56 -9.28Q917.56 -17.4 921.91 -28.42Q926.26 -39.44 931.48 -50.46Q936.7 -61.48 940.18 -68.44Q943.08 -73.66 948.01 -84.97Q952.94 -96.28 958.45 -108.75Q963.96 -121.22 967.73 -129.92Q971.5 -138.62 971.5 -138.62Q966.28 -132.82 957.87 -122.38Q949.46 -111.94 939.89 -100.63Q930.32 -89.32 922.49 -79.46Q914.66 -69.6 911.18 -64.96Q909.44 -62.64 908.28 -62.64Q907.12 -62.64 907.12 -65.54Q907.12 -70.18 910.02 -74.24Q916.98 -82.94 926.84 -95.41Q936.7 -107.88 946.85 -120.64Q957 -133.4 964.54 -143.26Q959.9 -143.26 952.65 -142.68Q945.4 -142.1 939.6 -141.23Q933.8 -140.36 933.22 -140.36Q930.32 -140.36 933.8 -145Q937.28 -149.64 943.08 -154.28Q948.88 -158.92 951.78 -158.92Q952.36 -158.92 961.06 -158.63Q969.76 -158.34 973.82 -158.34Q985.42 -174 996.73 -194.3Q1008.04 -214.6 1019.06 -238.96Q1023.7 -239.54 1035.01 -245.63Q1046.32 -251.72 1052.7 -258.1Q1055.6 -261 1057.34 -261Q1060.82 -261 1057.34 -256.36Q1053.28 -251.72 1043.42 -236.93Q1033.56 -222.14 1021.38 -201.55Q1009.2 -180.96 998.18 -158.34H1045.16Q1051.54 -158.34 1051.54 -156.6Q1051.54 -154.28 1042.84 -151.96Q1032.98 -149.06 1022.25 -148.48Q1011.52 -147.9 1002.53 -146.16Q993.54 -144.42 989.48 -138.62Q986 -134.56 979.62 -121.22Q973.24 -107.88 965.99 -90.77Q958.74 -73.66 953.52 -56.55Q948.3 -39.44 947.14 -27.84V-25.52Q947.14 -20.88 950.04 -17.98Q952.94 -15.08 955.84 -15.08Q963.38 -15.08 975.27 -24.36Q987.16 -33.64 999.92 -46.69Q1012.68 -59.74 1021.96 -70.76Q1026.02 -75.4 1029.21 -79.46Q1032.4 -83.52 1032.98 -84.68Q1034.14 -82.36 1034.14 -81.2Q1034.14 -77.72 1032.11 -73.66Q1030.08 -69.6 1027.76 -66.7Q1016.74 -52.2 1001.08 -36.25Q985.42 -20.3 967.73 -9.28Q950.04 1.74 931.48 1.74ZM1055.6 1.74Q1049.8 1.74 1045.74 -0.58Q1041.68 -2.9 1041.68 -9.28Q1041.68 -17.4 1046.03 -28.42Q1050.38 -39.44 1055.6 -50.46Q1060.82 -61.48 1064.3 -68.44Q1071.26 -81.78 1077.64 -95.12Q1084.02 -108.46 1088.66 -117.74Q1093.3 -126.44 1093.3 -129.34Q1093.3 -133.98 1086.63 -129.34Q1079.96 -124.7 1074.16 -120.06Q1061.4 -107.88 1047.48 -91.35Q1033.56 -74.82 1026.02 -64.96Q1024.28 -62.64 1023.12 -62.64Q1021.96 -62.64 1021.96 -65.54Q1021.96 -70.18 1024.86 -74.24Q1032.98 -85.84 1044 -99.76Q1055.02 -113.68 1066.62 -126.44Q1077.64 -138.04 1089.24 -149.06Q1100.84 -160.08 1118.82 -160.08Q1131 -160.08 1131 -150.8Q1131 -142.68 1124.04 -132.24Q1119.98 -125.86 1111.28 -110.78Q1102.58 -95.7 1093.59 -78.01Q1084.6 -60.32 1078.22 -45.24Q1071.84 -30.16 1071.84 -23.2Q1071.84 -15.08 1079.96 -15.08Q1086.34 -15.08 1095.62 -21.75Q1104.9 -28.42 1114.76 -37.7Q1132.74 -55.1 1147.53 -75.69Q1162.32 -96.28 1173.05 -115.42Q1183.78 -134.56 1190.16 -146.74Q1191.32 -149.06 1192.77 -152.25Q1194.22 -155.44 1197.7 -156.02Q1201.18 -156.6 1212.78 -156.6Q1224.38 -156.6 1234.24 -161.24H1235.4Q1237.14 -161.24 1237.14 -159.5Q1237.14 -154.86 1229.6 -152.54Q1222.64 -150.22 1213.65 -138.62Q1204.66 -127.02 1195.96 -110.49Q1187.26 -93.96 1180.3 -76.56Q1173.34 -59.16 1169.86 -44.66Q1166.38 -30.16 1168.12 -23.2Q1170.44 -15.08 1176.24 -15.08Q1183.78 -15.08 1197.41 -24.36Q1211.04 -33.64 1225.54 -46.69Q1240.04 -59.74 1249.32 -70.76Q1253.38 -75.4 1256.86 -80.04Q1260.34 -84.68 1261.5 -85.84Q1262.08 -85.26 1262.66 -83.81Q1263.24 -82.36 1263.24 -81.2Q1262.66 -77.14 1260.34 -73.37Q1258.02 -69.6 1255.12 -66.7Q1244.1 -52.2 1228.73 -36.25Q1213.36 -20.3 1195.67 -9.28Q1177.98 1.74 1159.42 1.74Q1153.62 1.74 1146.37 -1.16Q1139.12 -4.06 1139.12 -13.92Q1139.12 -21.46 1143.18 -34.51Q1147.24 -47.56 1152.17 -60.61Q1157.1 -73.66 1160.58 -80.04Q1153.04 -69.02 1142.31 -55.39Q1131.58 -41.76 1120.56 -31.32Q1106.06 -17.4 1089.53 -7.83Q1073 1.74 1055.6 1.74ZM1254.54 8.12Q1252.22 8.12 1254.54 3.48Q1257.44 -1.74 1260.05 -8.12Q1262.66 -14.5 1265.56 -22.04Q1271.36 -35.96 1278.32 -53.36Q1285.28 -70.76 1291.66 -87.29Q1298.04 -103.82 1302.97 -115.71Q1307.9 -127.6 1309.64 -131.08Q1301.52 -122.38 1290.21 -109.33Q1278.9 -96.28 1269.04 -84.1Q1259.18 -71.92 1253.96 -64.96Q1252.22 -62.64 1251.06 -62.64Q1249.9 -62.64 1249.9 -65.54Q1249.9 -70.18 1252.8 -74.24Q1263.82 -88.16 1277.45 -105.56Q1291.08 -122.96 1302.1 -137.75Q1313.12 -152.54 1316.02 -157.18Q1322.4 -158.34 1334.87 -160.66Q1347.34 -162.98 1351.98 -167.04Q1353.72 -168.78 1355.46 -168.78Q1356.62 -168.78 1356.91 -166.75Q1357.2 -164.72 1355.46 -162.4Q1351.98 -158.92 1345.31 -147.32Q1338.64 -135.72 1330.52 -120.64Q1322.4 -105.56 1314.86 -91.64Q1320.66 -100.34 1330.23 -112.23Q1339.8 -124.12 1351.4 -135.43Q1363 -146.74 1374.89 -154.28Q1386.78 -161.82 1397.22 -161.82Q1404.76 -161.82 1409.98 -158.63Q1415.2 -155.44 1418.1 -147.32Q1419.84 -143.26 1419.84 -138.04Q1419.84 -128.18 1414.91 -119.19Q1409.98 -110.2 1407.66 -105.56Q1407.08 -103.82 1403.6 -102.37Q1400.12 -100.92 1400.7 -103.24Q1401.28 -106.14 1401.57 -109.04Q1401.86 -111.94 1401.86 -115.42Q1401.86 -125.28 1398.09 -133.4Q1394.32 -141.52 1384.46 -141.52Q1375.18 -141.52 1361.84 -129.92Q1348.5 -118.32 1335.16 -103.24Q1318.34 -83.52 1308.48 -65.83Q1298.62 -48.14 1292.24 -31.32Q1288.76 -22.04 1285.28 -13.05Q1281.8 -4.06 1280.06 1.16Q1272.52 1.74 1264.98 4.93Q1257.44 8.12 1254.54 8.12ZM1441.88 4.64Q1418.1 4.64 1408.82 -4.64Q1399.54 -13.92 1399.54 -27.26Q1399.54 -44.08 1408.53 -63.22Q1417.52 -82.36 1425.64 -95.7Q1434.92 -109.62 1450.58 -124.7Q1466.24 -139.78 1484.8 -150.22Q1503.36 -160.66 1520.76 -160.66Q1535.84 -160.66 1541.64 -153.41Q1547.44 -146.16 1547.44 -136.3Q1547.44 -118.32 1536.71 -106.72Q1525.98 -95.12 1510.32 -87.87Q1494.66 -80.62 1480.16 -75.98Q1471.46 -73.66 1459.86 -71.34Q1448.26 -69.02 1437.82 -69.02Q1433.76 -58.58 1431.44 -48.72Q1429.12 -38.86 1429.12 -30.74Q1429.12 -20.88 1434.05 -14.5Q1438.98 -8.12 1450.58 -8.12Q1455.22 -8.12 1461.6 -9.28Q1467.98 -10.44 1475.52 -12.76Q1492.92 -18.56 1509.74 -31.32Q1526.56 -44.08 1540.77 -58.87Q1554.98 -73.66 1562.52 -83.52Q1564.26 -81.78 1564.26 -79.46Q1564.26 -76.56 1560.2 -70.18Q1548.6 -53.94 1530.04 -36.54Q1511.48 -19.14 1488.86 -7.25Q1466.24 4.64 1441.88 4.64ZM1442.46 -80.62Q1450 -80.04 1459.57 -80.91Q1469.14 -81.78 1478.42 -84.68Q1502.2 -91.64 1512.93 -107.01Q1523.66 -122.38 1523.66 -134.56Q1523.66 -141.52 1520.76 -146.16Q1517.86 -150.8 1511.48 -150.8Q1494.66 -150.8 1481.32 -138.33Q1467.98 -125.86 1458.12 -109.62Q1448.26 -93.38 1442.46 -80.62Z"/><path d="M446.46 192.56V262.56H454.96V192.56ZM451.16 200.56H465.46Q472.26 200.56 476.51 203.81Q480.76 207.06 480.76 213.56Q480.76 219.96 476.51 223.26Q472.26 226.56 465.46 226.56H451.16V234.56H465.46Q472.26 234.56 477.61 232.01Q482.96 229.46 486.11 224.71Q489.26 219.96 489.26 213.56Q489.26 207.06 486.11 202.36Q482.96 197.66 477.61 195.11Q472.26 192.56 465.46 192.56H451.16ZM561.26 192.56V262.56H569.76V192.56ZM652.46 241.56H689.46L686.46 233.56H655.46ZM670.76 208.36 682.76 236.56 683.56 238.56 693.76 262.56H703.26L670.76 189.06L638.26 262.56H647.76L658.16 237.96L658.96 236.16ZM824.76 192.56V244.66L771.76 189.06V262.56H780.26V210.46L833.26 266.06V192.56ZM914.26 227.56Q914.26 219.66 917.71 213.46Q921.16 207.26 927.16 203.66Q933.16 200.06 940.76 200.06Q948.46 200.06 954.41 203.66Q960.36 207.26 963.81 213.46Q967.26 219.66 967.26 227.56Q967.26 235.46 963.81 241.66Q960.36 247.86 954.41 251.46Q948.46 255.06 940.76 255.06Q933.16 255.06 927.16 251.46Q921.16 247.86 917.71 241.66Q914.26 235.46 914.26 227.56ZM905.26 227.56Q905.26 235.16 907.91 241.76Q910.56 248.36 915.36 253.21Q920.16 258.06 926.66 260.81Q933.16 263.56 940.76 263.56Q948.46 263.56 954.91 260.81Q961.36 258.06 966.16 253.21Q970.96 248.36 973.61 241.76Q976.26 235.16 976.26 227.56Q976.26 219.86 973.61 213.31Q970.96 206.76 966.16 201.91Q961.36 197.06 954.91 194.31Q948.46 191.56 940.76 191.56Q933.16 191.56 926.66 194.31Q920.16 197.06 915.36 201.91Q910.56 206.76 907.91 213.31Q905.26 219.86 905.26 227.56ZM1050.86 241.36 1044.06 245.96Q1046.36 250.56 1050.01 254.61Q1053.66 258.66 1058.51 261.11Q1063.36 263.56 1069.06 263.56Q1073.26 263.56 1077.11 262.16Q1080.96 260.76 1084.01 258.16Q1087.06 255.56 1088.81 251.86Q1090.56 248.16 1090.56 243.56Q1090.56 238.76 1088.86 235.31Q1087.16 231.86 1084.51 229.41Q1081.86 226.96 1078.76 225.36Q1075.66 223.76 1072.86 222.76Q1066.76 220.66 1063.21 218.51Q1059.66 216.36 1058.16 213.91Q1056.66 211.46 1056.66 208.56Q1056.66 205.16 1059.26 202.41Q1061.86 199.66 1067.56 199.66Q1071.66 199.66 1074.51 201.26Q1077.36 202.86 1079.36 205.36Q1081.36 207.86 1082.66 210.46L1089.96 206.26Q1088.26 202.56 1085.26 199.21Q1082.26 195.86 1078.01 193.71Q1073.76 191.56 1068.06 191.56Q1062.16 191.56 1057.56 193.91Q1052.96 196.26 1050.36 200.36Q1047.76 204.46 1047.76 209.66Q1047.76 214.46 1049.61 217.76Q1051.46 221.06 1054.36 223.31Q1057.26 225.56 1060.46 227.01Q1063.66 228.46 1066.26 229.36Q1070.26 230.76 1073.81 232.51Q1077.36 234.26 1079.56 237.06Q1081.76 239.86 1081.76 244.56Q1081.76 249.36 1078.36 252.46Q1074.96 255.56 1069.36 255.56Q1065.16 255.56 1061.86 253.76Q1058.56 251.96 1055.91 248.76Q1053.26 245.56 1050.86 241.36Z"/></g></svg>
