<svg xmlns="http://www.w3.org/2000/svg" viewBox="-60 -30 790 1370" role="img"><title>Cut-away of an upright piano, seen from the side, with 19 numbered parts</title><rect x="0" y="40" width="70" height="1200" fill="#E9E5DB" stroke="#16222E" stroke-width="4"/><rect x="72" y="150" width="12" height="950" fill="#BCCEDA" stroke="#16222E" stroke-width="2.4"/><rect x="84" y="550" width="16" height="472" fill="#E9E5DB" stroke="#16222E" stroke-width="2.4"/><path d="M100,70 H150 V1080 H100 Z" fill="none" stroke="#3A4855" stroke-width="8.8" stroke-linejoin="round"/><rect x="70" y="60" width="48" height="150" fill="#E9E5DB" stroke="#16222E" stroke-width="4"/><line x1="118" y1="95" x2="150" y2="89" stroke="#16222E" stroke-width="6.4" stroke-linecap="round"/><line x1="118" y1="130" x2="150" y2="124" stroke="#16222E" stroke-width="6.4" stroke-linecap="round"/><line x1="118" y1="165" x2="150" y2="159" stroke="#16222E" stroke-width="6.4" stroke-linecap="round"/><line x1="126" y1="120" x2="104" y2="1060" stroke="#16222E" stroke-width="2.8"/><rect x="126" y="289" width="34" height="52" rx="14" fill="#4A1520"/><line x1="160" y1="315" x2="270" y2="405" stroke="#16222E" stroke-width="4.8"/><rect x="120" y="185" width="22" height="46" fill="#fff" stroke="#16222E" stroke-width="3.2"/><line x1="142" y1="207" x2="235" y2="285" stroke="#16222E" stroke-width="3.6"/><rect x="215" y="375" width="140" height="166" fill="#fff" stroke="#16222E" stroke-width="4"/><line x1="235" y1="405" x2="335" y2="525" stroke="#16222E" stroke-width="2.8" opacity=".6"/><rect x="220" y="543" width="405" height="22" fill="#fff" stroke="#16222E" stroke-width="4"/><rect x="160" y="565" width="500" height="55" fill="#E9E5DB" stroke="#16222E" stroke-width="4"/><rect x="625" y="553" width="20" height="70" fill="#E9E5DB" stroke="#16222E" stroke-width="4"/><rect x="-10" y="0" width="480" height="40" fill="#E9E5DB" stroke="#16222E" stroke-width="4"/><rect x="420" y="40" width="22" height="325" fill="#E9E5DB" stroke="#16222E" stroke-width="4"/><path d="M442,365 h70 v16 h-70 z" fill="#E9E5DB" stroke="#16222E" stroke-width="4"/><path d="M420,385 C530,395 590,455 610,539" fill="none" stroke="#16222E" stroke-width="8"/><rect x="405" y="620" width="20" height="580" fill="#E9E5DB" stroke="#16222E" stroke-width="4"/><rect x="590" y="620" width="50" height="630" fill="#E9E5DB" stroke="#16222E" stroke-width="4" opacity=".85"/><rect x="60" y="1250" width="590" height="50" fill="#E9E5DB" stroke="#16222E" stroke-width="4"/><circle cx="110" cy="1305" r="9" fill="#16222E"/><circle cx="610" cy="1305" r="9" fill="#16222E"/><path d="M400,1230 L540,1215 L544,1230 L400,1240 Z" fill="#3A4855"/><line x1="300" y1="1225" x2="300" y2="625" stroke="#16222E" stroke-width="3.6" stroke-dasharray="14 10"/><line x1="300" y1="1225" x2="400" y2="1232" stroke="#16222E" stroke-width="3.6"/><line x1="-40" y1="1314" x2="710" y2="1314" stroke="#16222E" stroke-width="2.4"/><g><circle cx="180" cy="20" r="26" fill="#16222E"/><text x="180" y="20" dy="10" font-family="Jost" font-weight="500" font-size="30" fill="#fff" text-anchor="middle">1</text></g><g><circle cx="480" cy="373" r="26" fill="#16222E"/><text x="480" y="373" dy="10" font-family="Jost" font-weight="500" font-size="30" fill="#fff" text-anchor="middle">2</text></g><g><circle cx="555" cy="455" r="26" fill="#16222E"/><text x="555" y="455" dy="10" font-family="Jost" font-weight="500" font-size="30" fill="#fff" text-anchor="middle">3</text></g><g><circle cx="440" cy="554" r="26" fill="#16222E"/><text x="440" y="554" dy="10" font-family="Jost" font-weight="500" font-size="30" fill="#fff" text-anchor="middle">4</text></g><g><circle cx="635" cy="590" r="26" fill="#16222E"/><text x="635" y="590" dy="10" font-family="Jost" font-weight="500" font-size="30" fill="#fff" text-anchor="middle">5</text></g><g><circle cx="285" cy="465" r="26" fill="#16222E"/><text x="285" y="465" dy="10" font-family="Jost" font-weight="500" font-size="30" fill="#fff" text-anchor="middle">6</text></g><g><circle cx="143" cy="315" r="26" fill="#16222E"/><text x="143" y="315" dy="10" font-family="Jost" font-weight="500" font-size="30" fill="#fff" text-anchor="middle">7</text></g><g><circle cx="131" cy="208" r="26" fill="#16222E"/><text x="131" y="208" dy="10" font-family="Jost" font-weight="500" font-size="30" fill="#fff" text-anchor="middle">8</text></g><g><circle cx="115" cy="812" r="26" fill="#16222E"/><text x="115" y="812" dy="10" font-family="Jost" font-weight="500" font-size="30" fill="#fff" text-anchor="middle">9</text></g><g><circle cx="150" cy="95" r="26" fill="#16222E"/><text x="150" y="95" dy="10" font-family="Jost" font-weight="500" font-size="30" fill="#fff" text-anchor="middle">10</text></g><g><circle cx="150" cy="681" r="26" fill="#16222E"/><text x="150" y="681" dy="10" font-family="Jost" font-weight="500" font-size="30" fill="#fff" text-anchor="middle">11</text></g><g><circle cx="92" cy="943" r="26" fill="#16222E"/><text x="92" y="943" dy="10" font-family="Jost" font-weight="500" font-size="30" fill="#fff" text-anchor="middle">12</text></g><g><circle cx="78" cy="260" r="26" fill="#16222E"/><text x="78" y="260" dy="10" font-family="Jost" font-weight="500" font-size="30" fill="#fff" text-anchor="middle">13</text></g><g><circle cx="35" cy="655" r="26" fill="#16222E"/><text x="35" y="655" dy="10" font-family="Jost" font-weight="500" font-size="30" fill="#fff" text-anchor="middle">14</text></g><g><circle cx="470" cy="1228" r="26" fill="#16222E"/><text x="470" y="1228" dy="10" font-family="Jost" font-weight="500" font-size="30" fill="#fff" text-anchor="middle">15</text></g><g><circle cx="300" cy="815" r="26" fill="#16222E"/><text x="300" y="815" dy="10" font-family="Jost" font-weight="500" font-size="30" fill="#fff" text-anchor="middle">16</text></g><g><circle cx="415" cy="895" r="26" fill="#16222E"/><text x="415" y="895" dy="10" font-family="Jost" font-weight="500" font-size="30" fill="#fff" text-anchor="middle">17</text></g><g><circle cx="615" cy="765" r="26" fill="#16222E"/><text x="615" y="765" dy="10" font-family="Jost" font-weight="500" font-size="30" fill="#fff" text-anchor="middle">18</text></g><g><circle cx="610" cy="1305" r="26" fill="#16222E"/><text x="610" y="1305" dy="10" font-family="Jost" font-weight="500" font-size="30" fill="#fff" text-anchor="middle">19</text></g></svg>